<svg xmlns="http://www.w3.org/2000/svg" xmlns:xlink="http://www.w3.org/1999/xlink" width="600" zoomAndPan="magnify" viewBox="0 0 450 449.999984" height="600" preserveAspectRatio="xMidYMid meet" version="1.0"><defs><clipPath id="97cd4a1c51"><path d="M 216.261719 0 L 233.738281 0 L 233.738281 288 L 216.261719 288 Z M 216.261719 0 " clip-rule="nonzero"/></clipPath><clipPath id="b882f99b8f"><path d="M 149.992188 149.992188 L 299.992188 149.992188 L 299.992188 299.992188 L 149.992188 299.992188 Z M 149.992188 149.992188 " clip-rule="nonzero"/></clipPath><clipPath id="054e963caa"><path d="M 216.261719 162 L 233.738281 162 L 233.738281 450 L 216.261719 450 Z M 216.261719 162 " clip-rule="nonzero"/></clipPath><clipPath id="dce7c5ea21"><path d="M 150.007812 150.007812 L 300.007812 150.007812 L 300.007812 300.007812 L 150.007812 300.007812 Z M 150.007812 150.007812 " clip-rule="nonzero"/></clipPath></defs><g clip-path="url(#97cd4a1c51)"><path fill="#6d0000" d="M 216.261719 0 L 233.664062 0 L 233.664062 287.929688 L 216.261719 287.929688 Z M 216.261719 0 " fill-opacity="1" fill-rule="nonzero"/></g><g clip-path="url(#b882f99b8f)"><path fill="#6d0000" d="M 224.992188 149.992188 C 183.554688 149.992188 149.992188 183.554688 149.992188 224.992188 C 149.992188 266.429688 183.554688 299.992188 224.992188 299.992188 C 266.429688 299.992188 299.992188 266.429688 299.992188 224.992188 C 299.992188 183.554688 266.429688 149.992188 224.992188 149.992188 Z M 224.992188 284.992188 C 191.84375 284.992188 164.992188 258.144531 164.992188 224.992188 C 164.992188 191.84375 191.84375 164.992188 224.992188 164.992188 C 258.144531 164.992188 284.992188 191.84375 284.992188 224.992188 C 284.992188 258.144531 258.144531 284.992188 224.992188 284.992188 Z M 224.992188 284.992188 " fill-opacity="1" fill-rule="nonzero"/></g><g clip-path="url(#054e963caa)"><path fill="#6d0000" d="M 233.738281 450 L 216.335938 450 L 216.335938 162.070312 L 233.738281 162.070312 Z M 233.738281 450 " fill-opacity="1" fill-rule="nonzero"/></g><g clip-path="url(#dce7c5ea21)"><path fill="#6d0000" d="M 225.007812 300.007812 C 266.445312 300.007812 300.007812 266.445312 300.007812 225.007812 C 300.007812 183.570312 266.445312 150.007812 225.007812 150.007812 C 183.570312 150.007812 150.007812 183.570312 150.007812 225.007812 C 150.007812 266.445312 183.570312 300.007812 225.007812 300.007812 Z M 225.007812 165.007812 C 258.15625 165.007812 285.007812 191.855469 285.007812 225.007812 C 285.007812 258.15625 258.15625 285.007812 225.007812 285.007812 C 191.855469 285.007812 165.007812 258.15625 165.007812 225.007812 C 165.007812 191.855469 191.855469 165.007812 225.007812 165.007812 Z M 225.007812 165.007812 " fill-opacity="1" fill-rule="nonzero"/></g></svg>