<svg xmlns="http://www.w3.org/2000/svg" xmlns:xlink="http://www.w3.org/1999/xlink" width="600" zoomAndPan="magnify" viewBox="0 0 450 449.999984" height="600" preserveAspectRatio="xMidYMid meet" version="1.0"><defs><clipPath id="807c2dce74"><path d="M 216.261719 0 L 233.738281 0 L 233.738281 288 L 216.261719 288 Z M 216.261719 0 " clip-rule="nonzero"/></clipPath><clipPath id="028784cb46"><path d="M 149.992188 149.992188 L 299.992188 149.992188 L 299.992188 299.992188 L 149.992188 299.992188 Z M 149.992188 149.992188 " clip-rule="nonzero"/></clipPath><clipPath id="346aa53bf9"><path d="M 166 104 L 424 104 L 424 265 L 166 265 Z M 166 104 " clip-rule="nonzero"/></clipPath><clipPath id="82d6573ca1"><path d="M 305.90625 -82.738281 L 532.738281 305.90625 L 144.09375 532.738281 L -82.738281 144.09375 Z M 305.90625 -82.738281 " clip-rule="nonzero"/></clipPath><clipPath id="8758736090"><path d="M 305.90625 -82.738281 L 532.738281 305.90625 L 144.09375 532.738281 L -82.738281 144.09375 Z M 305.90625 -82.738281 " clip-rule="nonzero"/></clipPath><clipPath id="b332fee9e7"><path d="M 305.90625 -82.738281 L 532.738281 305.90625 L 144.09375 532.738281 L -82.738281 144.09375 Z M 305.90625 -82.738281 " clip-rule="nonzero"/></clipPath><clipPath id="325e9cd69a"><path d="M 414.789062 103.8125 L 423.859375 119.355469 L 175.125 264.53125 L 166.050781 248.984375 Z M 414.789062 103.8125 " clip-rule="nonzero"/></clipPath><clipPath id="e03f72f578"><path d="M 414.917969 104.035156 L 423.730469 119.128906 L 174.992188 264.304688 L 166.183594 249.210938 Z M 414.917969 104.035156 " clip-rule="nonzero"/></clipPath><clipPath id="f5b7498e43"><path d="M 149 149 L 301 149 L 301 301 L 149 301 Z M 149 149 " clip-rule="nonzero"/></clipPath><clipPath id="0c63b0da85"><path d="M 305.90625 -82.738281 L 532.738281 305.90625 L 144.09375 532.738281 L -82.738281 144.09375 Z M 305.90625 -82.738281 " clip-rule="nonzero"/></clipPath><clipPath id="156cd0da24"><path d="M 305.90625 -82.738281 L 532.738281 305.90625 L 144.09375 532.738281 L -82.738281 144.09375 Z M 305.90625 -82.738281 " clip-rule="nonzero"/></clipPath><clipPath id="3d0734758d"><path d="M 305.90625 -82.738281 L 532.738281 305.90625 L 144.09375 532.738281 L -82.738281 144.09375 Z M 305.90625 -82.738281 " clip-rule="nonzero"/></clipPath><clipPath id="312ed0a945"><path d="M 252.328125 121.050781 L 328.445312 251.464844 L 198.03125 327.578125 L 121.914062 197.167969 Z M 252.328125 121.050781 " clip-rule="nonzero"/></clipPath><clipPath id="48f7b6e9f9"><path d="M 251.972656 122.410156 L 327.582031 251.957031 L 198.035156 327.570312 L 122.421875 198.019531 Z M 251.972656 122.410156 " clip-rule="nonzero"/></clipPath></defs><g clip-path="url(#807c2dce74)"><path fill="#6d0000" d="M 216.261719 0 L 233.664062 0 L 233.664062 287.929688 L 216.261719 287.929688 Z M 216.261719 0 " fill-opacity="1" fill-rule="nonzero"/></g><g clip-path="url(#028784cb46)"><path fill="#6d0000" d="M 224.992188 149.992188 C 183.554688 149.992188 149.992188 183.554688 149.992188 224.992188 C 149.992188 266.429688 183.554688 299.992188 224.992188 299.992188 C 266.429688 299.992188 299.992188 266.429688 299.992188 224.992188 C 299.992188 183.554688 266.429688 149.992188 224.992188 149.992188 Z M 224.992188 284.992188 C 191.84375 284.992188 164.992188 258.144531 164.992188 224.992188 C 164.992188 191.84375 191.84375 164.992188 224.992188 164.992188 C 258.144531 164.992188 284.992188 191.84375 284.992188 224.992188 C 284.992188 258.144531 258.144531 284.992188 224.992188 284.992188 Z M 224.992188 284.992188 " fill-opacity="1" fill-rule="nonzero"/></g><g clip-path="url(#346aa53bf9)"><g clip-path="url(#82d6573ca1)"><g clip-path="url(#8758736090)"><g clip-path="url(#b332fee9e7)"><g clip-path="url(#325e9cd69a)"><g clip-path="url(#e03f72f578)"><path fill="#6d0000" d="M 414.917969 104.035156 L 423.691406 119.066406 L 175.015625 264.203125 L 166.246094 249.175781 Z M 414.917969 104.035156 " fill-opacity="1" fill-rule="nonzero"/></g></g></g></g></g></g><g clip-path="url(#f5b7498e43)"><g clip-path="url(#0c63b0da85)"><g clip-path="url(#156cd0da24)"><g clip-path="url(#3d0734758d)"><g clip-path="url(#312ed0a945)"><g clip-path="url(#48f7b6e9f9)"><path fill="#6d0000" d="M 289.777344 187.183594 C 268.890625 151.394531 222.984375 139.328125 187.199219 160.214844 C 151.410156 181.101562 139.339844 227.007812 160.226562 262.792969 C 181.117188 298.582031 227.019531 310.652344 262.808594 289.765625 C 298.597656 268.875 310.664062 222.972656 289.777344 187.183594 Z M 173.183594 255.234375 C 156.472656 226.605469 166.125 189.878906 194.757812 173.167969 C 223.386719 156.460938 260.113281 166.117188 276.824219 194.746094 C 293.535156 223.378906 283.875 260.101562 255.246094 276.808594 C 226.613281 293.519531 189.894531 283.867188 173.183594 255.234375 Z M 173.183594 255.234375 " fill-opacity="1" fill-rule="nonzero"/></g></g></g></g></g></g></svg>