<svg xmlns="http://www.w3.org/2000/svg" xmlns:xlink="http://www.w3.org/1999/xlink" width="600" zoomAndPan="magnify" viewBox="0 0 450 449.999984" height="600" preserveAspectRatio="xMidYMid meet" version="1.0"><defs><clipPath id="68cc202f8f"><path d="M 216.261719 0 L 233.738281 0 L 233.738281 288 L 216.261719 288 Z M 216.261719 0 " clip-rule="nonzero"/></clipPath><clipPath id="3acb2b27a3"><path d="M 149.992188 149.992188 L 299.992188 149.992188 L 299.992188 299.992188 L 149.992188 299.992188 Z M 149.992188 149.992188 " clip-rule="nonzero"/></clipPath><clipPath id="bc2e1f2d2d"><path d="M 166 104 L 424 104 L 424 265 L 166 265 Z M 166 104 " clip-rule="nonzero"/></clipPath><clipPath id="158bd03236"><path d="M 305.90625 -82.738281 L 532.738281 305.90625 L 144.09375 532.738281 L -82.738281 144.09375 Z M 305.90625 -82.738281 " clip-rule="nonzero"/></clipPath><clipPath id="82f21518ad"><path d="M 305.90625 -82.738281 L 532.738281 305.90625 L 144.09375 532.738281 L -82.738281 144.09375 Z M 305.90625 -82.738281 " clip-rule="nonzero"/></clipPath><clipPath id="bd217a4bd2"><path d="M 305.90625 -82.738281 L 532.738281 305.90625 L 144.09375 532.738281 L -82.738281 144.09375 Z M 305.90625 -82.738281 " clip-rule="nonzero"/></clipPath><clipPath id="a8c83fd68c"><path d="M 414.789062 103.8125 L 423.859375 119.355469 L 175.125 264.53125 L 166.050781 248.984375 Z M 414.789062 103.8125 " clip-rule="nonzero"/></clipPath><clipPath id="cd342defea"><path d="M 414.917969 104.035156 L 423.730469 119.128906 L 174.992188 264.304688 L 166.183594 249.210938 Z M 414.917969 104.035156 " clip-rule="nonzero"/></clipPath><clipPath id="75bbd298bb"><path d="M 149 149 L 301 149 L 301 301 L 149 301 Z M 149 149 " clip-rule="nonzero"/></clipPath><clipPath id="407b73fdac"><path d="M 305.90625 -82.738281 L 532.738281 305.90625 L 144.09375 532.738281 L -82.738281 144.09375 Z M 305.90625 -82.738281 " clip-rule="nonzero"/></clipPath><clipPath id="c379e223bd"><path d="M 305.90625 -82.738281 L 532.738281 305.90625 L 144.09375 532.738281 L -82.738281 144.09375 Z M 305.90625 -82.738281 " clip-rule="nonzero"/></clipPath><clipPath id="4dff2a3505"><path d="M 305.90625 -82.738281 L 532.738281 305.90625 L 144.09375 532.738281 L -82.738281 144.09375 Z M 305.90625 -82.738281 " clip-rule="nonzero"/></clipPath><clipPath id="c1e01e7bc2"><path d="M 252.328125 121.050781 L 328.445312 251.464844 L 198.03125 327.578125 L 121.914062 197.167969 Z M 252.328125 121.050781 " clip-rule="nonzero"/></clipPath><clipPath id="aaeca77db2"><path d="M 251.972656 122.410156 L 327.582031 251.957031 L 198.035156 327.570312 L 122.421875 198.019531 Z M 251.972656 122.410156 " clip-rule="nonzero"/></clipPath><clipPath id="8b70650339"><path d="M 166 186 L 425 186 L 425 345 L 166 345 Z M 166 186 " clip-rule="nonzero"/></clipPath><clipPath id="f243374c97"><path d="M 532.050781 141.511719 L 308.488281 532.050781 L -82.050781 308.488281 L 141.511719 -82.050781 Z M 532.050781 141.511719 " clip-rule="nonzero"/></clipPath><clipPath id="9cc25cf78d"><path d="M 532.050781 141.511719 L 308.488281 532.050781 L -82.050781 308.488281 L 141.511719 -82.050781 Z M 532.050781 141.511719 " clip-rule="nonzero"/></clipPath><clipPath id="246ea0c13e"><path d="M 532.050781 141.511719 L 308.488281 532.050781 L -82.050781 308.488281 L 141.511719 -82.050781 Z M 532.050781 141.511719 " clip-rule="nonzero"/></clipPath><clipPath id="681ab6ea97"><path d="M 424.742188 328.96875 L 415.796875 344.589844 L 165.851562 201.511719 L 174.796875 185.890625 Z M 424.742188 328.96875 " clip-rule="nonzero"/></clipPath><clipPath id="8ca1ee849c"><path d="M 424.609375 329.195312 L 415.929688 344.363281 L 165.984375 201.285156 L 174.664062 186.117188 Z M 424.609375 329.195312 " clip-rule="nonzero"/></clipPath><clipPath id="646277b8ea"><path d="M 149 149 L 301 149 L 301 301 L 149 301 Z M 149 149 " clip-rule="nonzero"/></clipPath><clipPath id="8a4817b65c"><path d="M 532.050781 141.511719 L 308.488281 532.050781 L -82.050781 308.488281 L 141.511719 -82.050781 Z M 532.050781 141.511719 " clip-rule="nonzero"/></clipPath><clipPath id="29f4377845"><path d="M 532.050781 141.511719 L 308.488281 532.050781 L -82.050781 308.488281 L 141.511719 -82.050781 Z M 532.050781 141.511719 " clip-rule="nonzero"/></clipPath><clipPath id="764686009a"><path d="M 532.050781 141.511719 L 308.488281 532.050781 L -82.050781 308.488281 L 141.511719 -82.050781 Z M 532.050781 141.511719 " clip-rule="nonzero"/></clipPath><clipPath id="3e5b442c41"><path d="M 328.714844 196.800781 L 253.699219 327.847656 L 122.648438 252.828125 L 197.667969 121.78125 Z M 328.714844 196.800781 " clip-rule="nonzero"/></clipPath><clipPath id="bdba5c79ff"><path d="M 327.359375 197.167969 L 252.839844 327.347656 L 122.660156 252.828125 L 197.179688 122.648438 Z M 327.359375 197.167969 " clip-rule="nonzero"/></clipPath><clipPath id="bd47670742"><path d="M 216.261719 162 L 233.738281 162 L 233.738281 450 L 216.261719 450 Z M 216.261719 162 " clip-rule="nonzero"/></clipPath><clipPath id="f076ac7bf0"><path d="M 150.007812 150.007812 L 300.007812 150.007812 L 300.007812 300.007812 L 150.007812 300.007812 Z M 150.007812 150.007812 " clip-rule="nonzero"/></clipPath><clipPath id="c8145997bc"><path d="M 25 185 L 284 185 L 284 346 L 25 346 Z M 25 185 " clip-rule="nonzero"/></clipPath><clipPath id="20156af57b"><path d="M 143.003906 532.453125 L -82.453125 143.003906 L 306.996094 -82.453125 L 532.453125 306.996094 Z M 143.003906 532.453125 " clip-rule="nonzero"/></clipPath><clipPath id="653f6421cd"><path d="M 143.003906 532.453125 L -82.453125 143.003906 L 306.996094 -82.453125 L 532.453125 306.996094 Z M 143.003906 532.453125 " clip-rule="nonzero"/></clipPath><clipPath id="e962c60540"><path d="M 143.003906 532.453125 L -82.453125 143.003906 L 306.996094 -82.453125 L 532.453125 306.996094 Z M 143.003906 532.453125 " clip-rule="nonzero"/></clipPath><clipPath id="2b0acb608d"><path d="M 34.785156 345.519531 L 25.765625 329.941406 L 275.011719 185.648438 L 284.03125 201.226562 Z M 34.785156 345.519531 " clip-rule="nonzero"/></clipPath><clipPath id="1a48bf6997"><path d="M 34.65625 345.292969 L 25.898438 330.167969 L 275.144531 185.875 L 283.902344 201 Z M 34.65625 345.292969 " clip-rule="nonzero"/></clipPath><clipPath id="4c31d3c7ad"><path d="M 149 149 L 301 149 L 301 301 L 149 301 Z M 149 149 " clip-rule="nonzero"/></clipPath><clipPath id="4acfb33628"><path d="M 143.003906 532.453125 L -82.453125 143.003906 L 306.996094 -82.453125 L 532.453125 306.996094 Z M 143.003906 532.453125 " clip-rule="nonzero"/></clipPath><clipPath id="83850be1b2"><path d="M 143.003906 532.453125 L -82.453125 143.003906 L 306.996094 -82.453125 L 532.453125 306.996094 Z M 143.003906 532.453125 " clip-rule="nonzero"/></clipPath><clipPath id="d930000388"><path d="M 143.003906 532.453125 L -82.453125 143.003906 L 306.996094 -82.453125 L 532.453125 306.996094 Z M 143.003906 532.453125 " clip-rule="nonzero"/></clipPath><clipPath id="bb1d843b2e"><path d="M 197.304688 328.851562 L 121.652344 198.167969 L 252.332031 122.515625 L 327.984375 253.195312 Z M 197.304688 328.851562 " clip-rule="nonzero"/></clipPath><clipPath id="fc30ab8cf4"><path d="M 197.664062 327.496094 L 122.511719 197.679688 L 252.328125 122.527344 L 327.480469 252.34375 Z M 197.664062 327.496094 " clip-rule="nonzero"/></clipPath><clipPath id="13367dccb4"><path d="M 26 104 L 284 104 L 284 265 L 26 265 Z M 26 104 " clip-rule="nonzero"/></clipPath><clipPath id="23ff67fd4d"><path d="M -82.769531 305.789062 L 144.210938 -82.769531 L 532.769531 144.210938 L 305.789062 532.769531 Z M -82.769531 305.789062 " clip-rule="nonzero"/></clipPath><clipPath id="9c20e48526"><path d="M -82.769531 305.789062 L 144.210938 -82.769531 L 532.769531 144.210938 L 305.789062 532.769531 Z M -82.769531 305.789062 " clip-rule="nonzero"/></clipPath><clipPath id="f062ca15c2"><path d="M -82.769531 305.789062 L 144.210938 -82.769531 L 532.769531 144.210938 L 305.789062 532.769531 Z M -82.769531 305.789062 " clip-rule="nonzero"/></clipPath><clipPath id="3c167d1694"><path d="M 26.179688 119.28125 L 35.257812 103.738281 L 283.9375 249.007812 L 274.859375 264.546875 Z M 26.179688 119.28125 " clip-rule="nonzero"/></clipPath><clipPath id="6bc530a4a4"><path d="M 26.3125 119.054688 L 35.128906 103.964844 L 283.804688 249.230469 L 274.992188 264.324219 Z M 26.3125 119.054688 " clip-rule="nonzero"/></clipPath><clipPath id="5921d9fa8e"><path d="M 149 149 L 301 149 L 301 301 L 149 301 Z M 149 149 " clip-rule="nonzero"/></clipPath><clipPath id="4b3e4fc596"><path d="M -82.769531 305.789062 L 144.210938 -82.769531 L 532.769531 144.210938 L 305.789062 532.769531 Z M -82.769531 305.789062 " clip-rule="nonzero"/></clipPath><clipPath id="0860ca6dfd"><path d="M -82.769531 305.789062 L 144.210938 -82.769531 L 532.769531 144.210938 L 305.789062 532.769531 Z M -82.769531 305.789062 " clip-rule="nonzero"/></clipPath><clipPath id="db2eb3807b"><path d="M -82.769531 305.789062 L 144.210938 -82.769531 L 532.769531 144.210938 L 305.789062 532.769531 Z M -82.769531 305.789062 " clip-rule="nonzero"/></clipPath><clipPath id="c301eb25a5"><path d="M 121.042969 252.289062 L 197.207031 121.90625 L 327.589844 198.070312 L 251.425781 328.453125 Z M 121.042969 252.289062 " clip-rule="nonzero"/></clipPath><clipPath id="c9cce55ffc"><path d="M 122.398438 251.933594 L 198.058594 122.414062 L 327.578125 198.074219 L 251.917969 327.59375 Z M 122.398438 251.933594 " clip-rule="nonzero"/></clipPath></defs><g clip-path="url(#68cc202f8f)"><path fill="#6d0000" d="M 216.261719 0 L 233.664062 0 L 233.664062 287.929688 L 216.261719 287.929688 Z M 216.261719 0 " fill-opacity="1" fill-rule="nonzero"/></g><g clip-path="url(#3acb2b27a3)"><path fill="#6d0000" d="M 224.992188 149.992188 C 183.554688 149.992188 149.992188 183.554688 149.992188 224.992188 C 149.992188 266.429688 183.554688 299.992188 224.992188 299.992188 C 266.429688 299.992188 299.992188 266.429688 299.992188 224.992188 C 299.992188 183.554688 266.429688 149.992188 224.992188 149.992188 Z M 224.992188 284.992188 C 191.84375 284.992188 164.992188 258.144531 164.992188 224.992188 C 164.992188 191.84375 191.84375 164.992188 224.992188 164.992188 C 258.144531 164.992188 284.992188 191.84375 284.992188 224.992188 C 284.992188 258.144531 258.144531 284.992188 224.992188 284.992188 Z M 224.992188 284.992188 " fill-opacity="1" fill-rule="nonzero"/></g><g clip-path="url(#bc2e1f2d2d)"><g clip-path="url(#158bd03236)"><g clip-path="url(#82f21518ad)"><g clip-path="url(#bd217a4bd2)"><g clip-path="url(#a8c83fd68c)"><g clip-path="url(#cd342defea)"><path fill="#6d0000" d="M 414.917969 104.035156 L 423.691406 119.066406 L 175.015625 264.203125 L 166.246094 249.175781 Z M 414.917969 104.035156 " fill-opacity="1" fill-rule="nonzero"/></g></g></g></g></g></g><g clip-path="url(#75bbd298bb)"><g clip-path="url(#407b73fdac)"><g clip-path="url(#c379e223bd)"><g clip-path="url(#4dff2a3505)"><g clip-path="url(#c1e01e7bc2)"><g clip-path="url(#aaeca77db2)"><path fill="#6d0000" d="M 289.777344 187.183594 C 268.890625 151.394531 222.984375 139.328125 187.199219 160.214844 C 151.410156 181.101562 139.339844 227.007812 160.226562 262.792969 C 181.117188 298.582031 227.019531 310.652344 262.808594 289.765625 C 298.597656 268.875 310.664062 222.972656 289.777344 187.183594 Z M 173.183594 255.234375 C 156.472656 226.605469 166.125 189.878906 194.757812 173.167969 C 223.386719 156.460938 260.113281 166.117188 276.824219 194.746094 C 293.535156 223.378906 283.875 260.101562 255.246094 276.808594 C 226.613281 293.519531 189.894531 283.867188 173.183594 255.234375 Z M 173.183594 255.234375 " fill-opacity="1" fill-rule="nonzero"/></g></g></g></g></g></g><g clip-path="url(#8b70650339)"><g clip-path="url(#f243374c97)"><g clip-path="url(#9cc25cf78d)"><g clip-path="url(#246ea0c13e)"><g clip-path="url(#681ab6ea97)"><g clip-path="url(#8ca1ee849c)"><path fill="#6d0000" d="M 424.609375 329.195312 L 415.964844 344.300781 L 166.082031 201.253906 L 174.726562 186.152344 Z M 424.609375 329.195312 " fill-opacity="1" fill-rule="nonzero"/></g></g></g></g></g></g><g clip-path="url(#646277b8ea)"><g clip-path="url(#8a4817b65c)"><g clip-path="url(#29f4377845)"><g clip-path="url(#764686009a)"><g clip-path="url(#3e5b442c41)"><g clip-path="url(#bdba5c79ff)"><path fill="#6d0000" d="M 290.101562 262.257812 C 310.6875 226.292969 298.234375 180.492188 262.269531 159.90625 C 226.308594 139.320312 180.507812 151.773438 159.921875 187.738281 C 139.335938 223.699219 151.789062 269.5 187.75 290.085938 C 223.710938 310.671875 269.515625 298.21875 290.101562 262.257812 Z M 172.9375 195.1875 C 189.40625 166.421875 226.046875 156.457031 254.820312 172.925781 C 283.585938 189.394531 293.550781 226.035156 277.082031 254.804688 C 260.613281 283.578125 223.972656 293.539062 195.203125 277.070312 C 166.429688 260.597656 156.46875 223.960938 172.9375 195.1875 Z M 172.9375 195.1875 " fill-opacity="1" fill-rule="nonzero"/></g></g></g></g></g></g><g clip-path="url(#bd47670742)"><path fill="#6d0000" d="M 233.738281 450 L 216.335938 450 L 216.335938 162.070312 L 233.738281 162.070312 Z M 233.738281 450 " fill-opacity="1" fill-rule="nonzero"/></g><g clip-path="url(#f076ac7bf0)"><path fill="#6d0000" d="M 225.007812 300.007812 C 266.445312 300.007812 300.007812 266.445312 300.007812 225.007812 C 300.007812 183.570312 266.445312 150.007812 225.007812 150.007812 C 183.570312 150.007812 150.007812 183.570312 150.007812 225.007812 C 150.007812 266.445312 183.570312 300.007812 225.007812 300.007812 Z M 225.007812 165.007812 C 258.15625 165.007812 285.007812 191.855469 285.007812 225.007812 C 285.007812 258.15625 258.15625 285.007812 225.007812 285.007812 C 191.855469 285.007812 165.007812 258.15625 165.007812 225.007812 C 165.007812 191.855469 191.855469 165.007812 225.007812 165.007812 Z M 225.007812 165.007812 " fill-opacity="1" fill-rule="nonzero"/></g><g clip-path="url(#c8145997bc)"><g clip-path="url(#20156af57b)"><g clip-path="url(#653f6421cd)"><g clip-path="url(#e962c60540)"><g clip-path="url(#2b0acb608d)"><g clip-path="url(#1a48bf6997)"><path fill="#6d0000" d="M 34.65625 345.292969 L 25.9375 330.230469 L 275.121094 185.972656 L 283.839844 201.035156 Z M 34.65625 345.292969 " fill-opacity="1" fill-rule="nonzero"/></g></g></g></g></g></g><g clip-path="url(#4c31d3c7ad)"><g clip-path="url(#4acfb33628)"><g clip-path="url(#83850be1b2)"><g clip-path="url(#d930000388)"><g clip-path="url(#bb1d843b2e)"><g clip-path="url(#fc30ab8cf4)"><path fill="#6d0000" d="M 160.089844 262.585938 C 180.851562 298.449219 226.710938 310.679688 262.574219 289.917969 C 298.433594 269.15625 310.664062 223.296875 289.90625 187.433594 C 269.144531 151.574219 223.28125 139.34375 187.421875 160.101562 C 151.558594 180.863281 139.328125 226.726562 160.089844 262.585938 Z M 276.921875 194.949219 C 293.53125 223.636719 283.75 260.328125 255.058594 276.9375 C 226.371094 293.542969 189.679688 283.757812 173.070312 255.070312 C 156.460938 226.378906 166.25 189.691406 194.9375 173.085938 C 223.628906 156.472656 260.3125 166.257812 276.921875 194.949219 Z M 276.921875 194.949219 " fill-opacity="1" fill-rule="nonzero"/></g></g></g></g></g></g><g clip-path="url(#13367dccb4)"><g clip-path="url(#23ff67fd4d)"><g clip-path="url(#9c20e48526)"><g clip-path="url(#f062ca15c2)"><g clip-path="url(#3c167d1694)"><g clip-path="url(#6bc530a4a4)"><path fill="#6d0000" d="M 26.3125 119.054688 L 35.089844 104.027344 L 283.707031 249.261719 L 274.929688 264.285156 Z M 26.3125 119.054688 " fill-opacity="1" fill-rule="nonzero"/></g></g></g></g></g></g><g clip-path="url(#5921d9fa8e)"><g clip-path="url(#4b3e4fc596)"><g clip-path="url(#0860ca6dfd)"><g clip-path="url(#db2eb3807b)"><g clip-path="url(#c301eb25a5)"><g clip-path="url(#c9cce55ffc)"><path fill="#6d0000" d="M 160.230469 187.171875 C 139.328125 222.953125 151.378906 268.863281 187.160156 289.761719 C 222.9375 310.664062 268.847656 298.613281 289.75 262.832031 C 310.652344 227.054688 298.597656 181.144531 262.820312 160.242188 C 227.039062 139.339844 181.128906 151.394531 160.230469 187.171875 Z M 276.796875 255.265625 C 260.078125 283.890625 223.351562 293.53125 194.726562 276.8125 C 166.101562 260.089844 156.460938 223.363281 173.179688 194.738281 C 189.902344 166.113281 226.628906 156.472656 255.253906 173.195312 C 283.878906 189.917969 293.519531 226.640625 276.796875 255.265625 Z M 276.796875 255.265625 " fill-opacity="1" fill-rule="nonzero"/></g></g></g></g></g></g></svg>