<svg xmlns="http://www.w3.org/2000/svg" xmlns:xlink="http://www.w3.org/1999/xlink" width="600" zoomAndPan="magnify" viewBox="0 0 450 449.999984" height="600" preserveAspectRatio="xMidYMid meet" version="1.0"><defs><clipPath id="57c894d7b7"><path d="M 216.261719 0 L 233.738281 0 L 233.738281 288 L 216.261719 288 Z M 216.261719 0 " clip-rule="nonzero"/></clipPath><clipPath id="7cb77ebe51"><path d="M 149.992188 149.992188 L 299.992188 149.992188 L 299.992188 299.992188 L 149.992188 299.992188 Z M 149.992188 149.992188 " clip-rule="nonzero"/></clipPath><clipPath id="e105c9c924"><path d="M 166 104 L 424 104 L 424 265 L 166 265 Z M 166 104 " clip-rule="nonzero"/></clipPath><clipPath id="ee720a0e62"><path d="M 305.90625 -82.738281 L 532.738281 305.90625 L 144.09375 532.738281 L -82.738281 144.09375 Z M 305.90625 -82.738281 " clip-rule="nonzero"/></clipPath><clipPath id="7f1f61f559"><path d="M 305.90625 -82.738281 L 532.738281 305.90625 L 144.09375 532.738281 L -82.738281 144.09375 Z M 305.90625 -82.738281 " clip-rule="nonzero"/></clipPath><clipPath id="2927cee367"><path d="M 305.90625 -82.738281 L 532.738281 305.90625 L 144.09375 532.738281 L -82.738281 144.09375 Z M 305.90625 -82.738281 " clip-rule="nonzero"/></clipPath><clipPath id="4ffd617ca6"><path d="M 414.789062 103.8125 L 423.859375 119.355469 L 175.125 264.53125 L 166.050781 248.984375 Z M 414.789062 103.8125 " clip-rule="nonzero"/></clipPath><clipPath id="8ea3f98583"><path d="M 414.917969 104.035156 L 423.730469 119.128906 L 174.992188 264.304688 L 166.183594 249.210938 Z M 414.917969 104.035156 " clip-rule="nonzero"/></clipPath><clipPath id="c368e9727d"><path d="M 149 149 L 301 149 L 301 301 L 149 301 Z M 149 149 " clip-rule="nonzero"/></clipPath><clipPath id="54af661506"><path d="M 305.90625 -82.738281 L 532.738281 305.90625 L 144.09375 532.738281 L -82.738281 144.09375 Z M 305.90625 -82.738281 " clip-rule="nonzero"/></clipPath><clipPath id="f04e47620b"><path d="M 305.90625 -82.738281 L 532.738281 305.90625 L 144.09375 532.738281 L -82.738281 144.09375 Z M 305.90625 -82.738281 " clip-rule="nonzero"/></clipPath><clipPath id="fedd22cdd9"><path d="M 305.90625 -82.738281 L 532.738281 305.90625 L 144.09375 532.738281 L -82.738281 144.09375 Z M 305.90625 -82.738281 " clip-rule="nonzero"/></clipPath><clipPath id="b808ebe06f"><path d="M 252.328125 121.050781 L 328.445312 251.464844 L 198.03125 327.578125 L 121.914062 197.167969 Z M 252.328125 121.050781 " clip-rule="nonzero"/></clipPath><clipPath id="e2d20486b4"><path d="M 251.972656 122.410156 L 327.582031 251.957031 L 198.035156 327.570312 L 122.421875 198.019531 Z M 251.972656 122.410156 " clip-rule="nonzero"/></clipPath><clipPath id="f193c59d0e"><path d="M 166 186 L 425 186 L 425 345 L 166 345 Z M 166 186 " clip-rule="nonzero"/></clipPath><clipPath id="9ae691fe53"><path d="M 532.050781 141.511719 L 308.488281 532.050781 L -82.050781 308.488281 L 141.511719 -82.050781 Z M 532.050781 141.511719 " clip-rule="nonzero"/></clipPath><clipPath id="1d155b9b5c"><path d="M 532.050781 141.511719 L 308.488281 532.050781 L -82.050781 308.488281 L 141.511719 -82.050781 Z M 532.050781 141.511719 " clip-rule="nonzero"/></clipPath><clipPath id="b716d3f1f4"><path d="M 532.050781 141.511719 L 308.488281 532.050781 L -82.050781 308.488281 L 141.511719 -82.050781 Z M 532.050781 141.511719 " clip-rule="nonzero"/></clipPath><clipPath id="22435c1e0c"><path d="M 424.742188 328.96875 L 415.796875 344.589844 L 165.851562 201.511719 L 174.796875 185.890625 Z M 424.742188 328.96875 " clip-rule="nonzero"/></clipPath><clipPath id="233ad6cd3a"><path d="M 424.609375 329.195312 L 415.929688 344.363281 L 165.984375 201.285156 L 174.664062 186.117188 Z M 424.609375 329.195312 " clip-rule="nonzero"/></clipPath><clipPath id="111f6b3f1f"><path d="M 149 149 L 301 149 L 301 301 L 149 301 Z M 149 149 " clip-rule="nonzero"/></clipPath><clipPath id="149a51be7c"><path d="M 532.050781 141.511719 L 308.488281 532.050781 L -82.050781 308.488281 L 141.511719 -82.050781 Z M 532.050781 141.511719 " clip-rule="nonzero"/></clipPath><clipPath id="b9ff5e7de3"><path d="M 532.050781 141.511719 L 308.488281 532.050781 L -82.050781 308.488281 L 141.511719 -82.050781 Z M 532.050781 141.511719 " clip-rule="nonzero"/></clipPath><clipPath id="25a077594b"><path d="M 532.050781 141.511719 L 308.488281 532.050781 L -82.050781 308.488281 L 141.511719 -82.050781 Z M 532.050781 141.511719 " clip-rule="nonzero"/></clipPath><clipPath id="a5267c002a"><path d="M 328.714844 196.800781 L 253.699219 327.847656 L 122.648438 252.828125 L 197.667969 121.78125 Z M 328.714844 196.800781 " clip-rule="nonzero"/></clipPath><clipPath id="73f1c2f101"><path d="M 327.359375 197.167969 L 252.839844 327.347656 L 122.660156 252.828125 L 197.179688 122.648438 Z M 327.359375 197.167969 " clip-rule="nonzero"/></clipPath><clipPath id="dcbef082ff"><path d="M 216.261719 162 L 233.738281 162 L 233.738281 450 L 216.261719 450 Z M 216.261719 162 " clip-rule="nonzero"/></clipPath><clipPath id="20a0fc5a21"><path d="M 150.007812 150.007812 L 300.007812 150.007812 L 300.007812 300.007812 L 150.007812 300.007812 Z M 150.007812 150.007812 " clip-rule="nonzero"/></clipPath></defs><g clip-path="url(#57c894d7b7)"><path fill="#6d0000" d="M 216.261719 0 L 233.664062 0 L 233.664062 287.929688 L 216.261719 287.929688 Z M 216.261719 0 " fill-opacity="1" fill-rule="nonzero"/></g><g clip-path="url(#7cb77ebe51)"><path fill="#6d0000" d="M 224.992188 149.992188 C 183.554688 149.992188 149.992188 183.554688 149.992188 224.992188 C 149.992188 266.429688 183.554688 299.992188 224.992188 299.992188 C 266.429688 299.992188 299.992188 266.429688 299.992188 224.992188 C 299.992188 183.554688 266.429688 149.992188 224.992188 149.992188 Z M 224.992188 284.992188 C 191.84375 284.992188 164.992188 258.144531 164.992188 224.992188 C 164.992188 191.84375 191.84375 164.992188 224.992188 164.992188 C 258.144531 164.992188 284.992188 191.84375 284.992188 224.992188 C 284.992188 258.144531 258.144531 284.992188 224.992188 284.992188 Z M 224.992188 284.992188 " fill-opacity="1" fill-rule="nonzero"/></g><g clip-path="url(#e105c9c924)"><g clip-path="url(#ee720a0e62)"><g clip-path="url(#7f1f61f559)"><g clip-path="url(#2927cee367)"><g clip-path="url(#4ffd617ca6)"><g clip-path="url(#8ea3f98583)"><path fill="#6d0000" d="M 414.917969 104.035156 L 423.691406 119.066406 L 175.015625 264.203125 L 166.246094 249.175781 Z M 414.917969 104.035156 " fill-opacity="1" fill-rule="nonzero"/></g></g></g></g></g></g><g clip-path="url(#c368e9727d)"><g clip-path="url(#54af661506)"><g clip-path="url(#f04e47620b)"><g clip-path="url(#fedd22cdd9)"><g clip-path="url(#b808ebe06f)"><g clip-path="url(#e2d20486b4)"><path fill="#6d0000" d="M 289.777344 187.183594 C 268.890625 151.394531 222.984375 139.328125 187.199219 160.214844 C 151.410156 181.101562 139.339844 227.007812 160.226562 262.792969 C 181.117188 298.582031 227.019531 310.652344 262.808594 289.765625 C 298.597656 268.875 310.664062 222.972656 289.777344 187.183594 Z M 173.183594 255.234375 C 156.472656 226.605469 166.125 189.878906 194.757812 173.167969 C 223.386719 156.460938 260.113281 166.117188 276.824219 194.746094 C 293.535156 223.378906 283.875 260.101562 255.246094 276.808594 C 226.613281 293.519531 189.894531 283.867188 173.183594 255.234375 Z M 173.183594 255.234375 " fill-opacity="1" fill-rule="nonzero"/></g></g></g></g></g></g><g clip-path="url(#f193c59d0e)"><g clip-path="url(#9ae691fe53)"><g clip-path="url(#1d155b9b5c)"><g clip-path="url(#b716d3f1f4)"><g clip-path="url(#22435c1e0c)"><g clip-path="url(#233ad6cd3a)"><path fill="#6d0000" d="M 424.609375 329.195312 L 415.964844 344.300781 L 166.082031 201.253906 L 174.726562 186.152344 Z M 424.609375 329.195312 " fill-opacity="1" fill-rule="nonzero"/></g></g></g></g></g></g><g clip-path="url(#111f6b3f1f)"><g clip-path="url(#149a51be7c)"><g clip-path="url(#b9ff5e7de3)"><g clip-path="url(#25a077594b)"><g clip-path="url(#a5267c002a)"><g clip-path="url(#73f1c2f101)"><path fill="#6d0000" d="M 290.101562 262.257812 C 310.6875 226.292969 298.234375 180.492188 262.269531 159.90625 C 226.308594 139.320312 180.507812 151.773438 159.921875 187.738281 C 139.335938 223.699219 151.789062 269.5 187.75 290.085938 C 223.710938 310.671875 269.515625 298.21875 290.101562 262.257812 Z M 172.9375 195.1875 C 189.40625 166.421875 226.046875 156.457031 254.820312 172.925781 C 283.585938 189.394531 293.550781 226.035156 277.082031 254.804688 C 260.613281 283.578125 223.972656 293.539062 195.203125 277.070312 C 166.429688 260.597656 156.46875 223.960938 172.9375 195.1875 Z M 172.9375 195.1875 " fill-opacity="1" fill-rule="nonzero"/></g></g></g></g></g></g><g clip-path="url(#dcbef082ff)"><path fill="#6d0000" d="M 233.738281 450 L 216.335938 450 L 216.335938 162.070312 L 233.738281 162.070312 Z M 233.738281 450 " fill-opacity="1" fill-rule="nonzero"/></g><g clip-path="url(#20a0fc5a21)"><path fill="#6d0000" d="M 225.007812 300.007812 C 266.445312 300.007812 300.007812 266.445312 300.007812 225.007812 C 300.007812 183.570312 266.445312 150.007812 225.007812 150.007812 C 183.570312 150.007812 150.007812 183.570312 150.007812 225.007812 C 150.007812 266.445312 183.570312 300.007812 225.007812 300.007812 Z M 225.007812 165.007812 C 258.15625 165.007812 285.007812 191.855469 285.007812 225.007812 C 285.007812 258.15625 258.15625 285.007812 225.007812 285.007812 C 191.855469 285.007812 165.007812 258.15625 165.007812 225.007812 C 165.007812 191.855469 191.855469 165.007812 225.007812 165.007812 Z M 225.007812 165.007812 " fill-opacity="1" fill-rule="nonzero"/></g></svg>