<svg xmlns="http://www.w3.org/2000/svg" xmlns:xlink="http://www.w3.org/1999/xlink" width="600" zoomAndPan="magnify" viewBox="0 0 450 449.999984" height="600" preserveAspectRatio="xMidYMid meet" version="1.0"><defs><clipPath id="afa5736068"><path d="M 216.261719 0 L 233.738281 0 L 233.738281 288 L 216.261719 288 Z M 216.261719 0 " clip-rule="nonzero"/></clipPath><clipPath id="d8c1810850"><path d="M 149.992188 149.992188 L 299.992188 149.992188 L 299.992188 299.992188 L 149.992188 299.992188 Z M 149.992188 149.992188 " clip-rule="nonzero"/></clipPath><clipPath id="6cba63731c"><path d="M 165 186 L 426 186 L 426 344 L 165 344 Z M 165 186 " clip-rule="nonzero"/></clipPath><clipPath id="ee9a3c2750"><path d="M 531.65625 140.078125 L 309.921875 531.65625 L -81.65625 309.921875 L 140.078125 -81.65625 Z M 531.65625 140.078125 " clip-rule="nonzero"/></clipPath><clipPath id="311f618331"><path d="M 531.65625 140.078125 L 309.921875 531.65625 L -81.65625 309.921875 L 140.078125 -81.65625 Z M 531.65625 140.078125 " clip-rule="nonzero"/></clipPath><clipPath id="e192d21a9d"><path d="M 531.65625 140.078125 L 309.921875 531.65625 L -81.65625 309.921875 L 140.078125 -81.65625 Z M 531.65625 140.078125 " clip-rule="nonzero"/></clipPath><clipPath id="1f5722cbf4"><path d="M 425.222656 328.035156 L 416.355469 343.699219 L 165.746094 201.789062 L 174.613281 186.125 Z M 425.222656 328.035156 " clip-rule="nonzero"/></clipPath><clipPath id="62374ceb19"><path d="M 425.09375 328.261719 L 416.484375 343.472656 L 165.875 201.5625 L 174.484375 186.351562 Z M 425.09375 328.261719 " clip-rule="nonzero"/></clipPath><clipPath id="b0f30fbac2"><path d="M 149 149 L 301 149 L 301 301 L 149 301 Z M 149 149 " clip-rule="nonzero"/></clipPath><clipPath id="c97e1e7b7a"><path d="M 531.65625 140.078125 L 309.921875 531.65625 L -81.65625 309.921875 L 140.078125 -81.65625 Z M 531.65625 140.078125 " clip-rule="nonzero"/></clipPath><clipPath id="48c0b3df6c"><path d="M 531.65625 140.078125 L 309.921875 531.65625 L -81.65625 309.921875 L 140.078125 -81.65625 Z M 531.65625 140.078125 " clip-rule="nonzero"/></clipPath><clipPath id="73263c844f"><path d="M 531.65625 140.078125 L 309.921875 531.65625 L -81.65625 309.921875 L 140.078125 -81.65625 Z M 531.65625 140.078125 " clip-rule="nonzero"/></clipPath><clipPath id="02b2c65cc5"><path d="M 328.582031 196.316406 L 254.175781 327.710938 L 122.78125 253.308594 L 197.183594 121.910156 Z M 328.582031 196.316406 " clip-rule="nonzero"/></clipPath><clipPath id="81e979a710"><path d="M 327.230469 196.691406 L 253.316406 327.214844 L 122.792969 253.304688 L 196.703125 122.777344 Z M 327.230469 196.691406 " clip-rule="nonzero"/></clipPath><clipPath id="c4c47ef917"><path d="M 24 186 L 285 186 L 285 344 L 24 344 Z M 24 186 " clip-rule="nonzero"/></clipPath><clipPath id="794dbe93b4"><path d="M 140.148438 531.675781 L -81.675781 140.148438 L 309.851562 -81.675781 L 531.675781 309.851562 Z M 140.148438 531.675781 " clip-rule="nonzero"/></clipPath><clipPath id="c41c36722d"><path d="M 140.148438 531.675781 L -81.675781 140.148438 L 309.851562 -81.675781 L 531.675781 309.851562 Z M 140.148438 531.675781 " clip-rule="nonzero"/></clipPath><clipPath id="96cf2d44d3"><path d="M 140.148438 531.675781 L -81.675781 140.148438 L 309.851562 -81.675781 L 531.675781 309.851562 Z M 140.148438 531.675781 " clip-rule="nonzero"/></clipPath><clipPath id="7ed5b6e7d1"><path d="M 33.671875 343.742188 L 24.800781 328.082031 L 275.378906 186.113281 L 284.25 201.773438 Z M 33.671875 343.742188 " clip-rule="nonzero"/></clipPath><clipPath id="6c1ac3689b"><path d="M 33.542969 343.515625 L 24.929688 328.308594 L 275.507812 186.34375 L 284.121094 201.546875 Z M 33.542969 343.515625 " clip-rule="nonzero"/></clipPath><clipPath id="6f78d2ec4a"><path d="M 149 149 L 301 149 L 301 301 L 149 301 Z M 149 149 " clip-rule="nonzero"/></clipPath><clipPath id="4d32d9522c"><path d="M 140.148438 531.675781 L -81.675781 140.148438 L 309.851562 -81.675781 L 531.675781 309.851562 Z M 140.148438 531.675781 " clip-rule="nonzero"/></clipPath><clipPath id="d95229ef9b"><path d="M 140.148438 531.675781 L -81.675781 140.148438 L 309.851562 -81.675781 L 531.675781 309.851562 Z M 140.148438 531.675781 " clip-rule="nonzero"/></clipPath><clipPath id="a2eabb0347"><path d="M 140.148438 531.675781 L -81.675781 140.148438 L 309.851562 -81.675781 L 531.675781 309.851562 Z M 140.148438 531.675781 " clip-rule="nonzero"/></clipPath><clipPath id="a3efc706c6"><path d="M 196.339844 328.589844 L 121.90625 197.207031 L 253.285156 122.773438 L 327.71875 254.152344 Z M 196.339844 328.589844 " clip-rule="nonzero"/></clipPath><clipPath id="dce800da33"><path d="M 196.710938 327.234375 L 122.773438 196.726562 L 253.28125 122.785156 L 327.222656 253.292969 Z M 196.710938 327.234375 " clip-rule="nonzero"/></clipPath><clipPath id="d0145927e1"><path d="M 216.261719 162 L 233.738281 162 L 233.738281 450 L 216.261719 450 Z M 216.261719 162 " clip-rule="nonzero"/></clipPath><clipPath id="382b7c7015"><path d="M 150.007812 150.007812 L 300.007812 150.007812 L 300.007812 300.007812 L 150.007812 300.007812 Z M 150.007812 150.007812 " clip-rule="nonzero"/></clipPath></defs><g clip-path="url(#afa5736068)"><path fill="#6d0000" d="M 216.261719 0 L 233.664062 0 L 233.664062 287.929688 L 216.261719 287.929688 Z M 216.261719 0 " fill-opacity="1" fill-rule="nonzero"/></g><g clip-path="url(#d8c1810850)"><path fill="#6d0000" d="M 224.992188 149.992188 C 183.554688 149.992188 149.992188 183.554688 149.992188 224.992188 C 149.992188 266.429688 183.554688 299.992188 224.992188 299.992188 C 266.429688 299.992188 299.992188 266.429688 299.992188 224.992188 C 299.992188 183.554688 266.429688 149.992188 224.992188 149.992188 Z M 224.992188 284.992188 C 191.84375 284.992188 164.992188 258.144531 164.992188 224.992188 C 164.992188 191.84375 191.84375 164.992188 224.992188 164.992188 C 258.144531 164.992188 284.992188 191.84375 284.992188 224.992188 C 284.992188 258.144531 258.144531 284.992188 224.992188 284.992188 Z M 224.992188 284.992188 " fill-opacity="1" fill-rule="nonzero"/></g><g clip-path="url(#6cba63731c)"><g clip-path="url(#ee9a3c2750)"><g clip-path="url(#311f618331)"><g clip-path="url(#e192d21a9d)"><g clip-path="url(#1f5722cbf4)"><g clip-path="url(#62374ceb19)"><path fill="#6d0000" d="M 425.09375 328.261719 L 416.519531 343.40625 L 165.972656 201.53125 L 174.546875 186.386719 Z M 425.09375 328.261719 " fill-opacity="1" fill-rule="nonzero"/></g></g></g></g></g></g><g clip-path="url(#b0f30fbac2)"><g clip-path="url(#c97e1e7b7a)"><g clip-path="url(#48c0b3df6c)"><g clip-path="url(#73263c844f)"><g clip-path="url(#02b2c65cc5)"><g clip-path="url(#81e979a710)"><path fill="#6d0000" d="M 290.273438 261.953125 C 310.691406 225.894531 298.023438 180.152344 261.964844 159.734375 C 225.910156 139.316406 180.164062 151.984375 159.746094 188.042969 C 139.328125 224.097656 151.996094 269.84375 188.054688 290.261719 C 224.113281 310.679688 269.855469 298.011719 290.273438 261.953125 Z M 172.800781 195.433594 C 189.132812 166.585938 225.726562 156.449219 254.574219 172.785156 C 283.421875 189.121094 293.554688 225.714844 277.222656 254.5625 C 260.886719 283.410156 224.292969 293.542969 195.445312 277.207031 C 166.597656 260.871094 156.464844 224.28125 172.800781 195.433594 Z M 172.800781 195.433594 " fill-opacity="1" fill-rule="nonzero"/></g></g></g></g></g></g><g clip-path="url(#c4c47ef917)"><g clip-path="url(#794dbe93b4)"><g clip-path="url(#c41c36722d)"><g clip-path="url(#96cf2d44d3)"><g clip-path="url(#7ed5b6e7d1)"><g clip-path="url(#6c1ac3689b)"><path fill="#6d0000" d="M 33.542969 343.515625 L 24.964844 328.375 L 275.480469 186.441406 L 284.058594 201.582031 Z M 33.542969 343.515625 " fill-opacity="1" fill-rule="nonzero"/></g></g></g></g></g></g><g clip-path="url(#6f78d2ec4a)"><g clip-path="url(#4d32d9522c)"><g clip-path="url(#d95229ef9b)"><g clip-path="url(#a2eabb0347)"><g clip-path="url(#a3efc706c6)"><g clip-path="url(#dce800da33)"><path fill="#6d0000" d="M 159.742188 261.980469 C 180.167969 298.035156 225.914062 310.691406 261.96875 290.265625 C 298.019531 269.839844 310.679688 224.09375 290.25 188.039062 C 269.824219 151.988281 224.078125 139.328125 188.027344 159.757812 C 151.972656 180.183594 139.316406 225.929688 159.742188 261.980469 Z M 277.199219 195.433594 C 293.542969 224.277344 283.417969 260.871094 254.574219 277.214844 C 225.730469 293.554688 189.132812 283.429688 172.792969 254.585938 C 156.449219 225.742188 166.578125 189.148438 195.421875 172.808594 C 224.265625 156.464844 260.859375 166.589844 277.199219 195.433594 Z M 277.199219 195.433594 " fill-opacity="1" fill-rule="nonzero"/></g></g></g></g></g></g><g clip-path="url(#d0145927e1)"><path fill="#6d0000" d="M 233.738281 450 L 216.335938 450 L 216.335938 162.070312 L 233.738281 162.070312 Z M 233.738281 450 " fill-opacity="1" fill-rule="nonzero"/></g><g clip-path="url(#382b7c7015)"><path fill="#6d0000" d="M 225.007812 300.007812 C 266.445312 300.007812 300.007812 266.445312 300.007812 225.007812 C 300.007812 183.570312 266.445312 150.007812 225.007812 150.007812 C 183.570312 150.007812 150.007812 183.570312 150.007812 225.007812 C 150.007812 266.445312 183.570312 300.007812 225.007812 300.007812 Z M 225.007812 165.007812 C 258.15625 165.007812 285.007812 191.855469 285.007812 225.007812 C 285.007812 258.15625 258.15625 285.007812 225.007812 285.007812 C 191.855469 285.007812 165.007812 258.15625 165.007812 225.007812 C 165.007812 191.855469 191.855469 165.007812 225.007812 165.007812 Z M 225.007812 165.007812 " fill-opacity="1" fill-rule="nonzero"/></g></svg>