<svg xmlns="http://www.w3.org/2000/svg" xmlns:xlink="http://www.w3.org/1999/xlink" width="600" zoomAndPan="magnify" viewBox="0 0 450 449.999984" height="600" preserveAspectRatio="xMidYMid meet" version="1.0"><defs><clipPath id="5762210c81"><path d="M 216.261719 0 L 233.738281 0 L 233.738281 288 L 216.261719 288 Z M 216.261719 0 " clip-rule="nonzero"/></clipPath><clipPath id="b7553e20fe"><path d="M 149.992188 149.992188 L 299.992188 149.992188 L 299.992188 299.992188 L 149.992188 299.992188 Z M 149.992188 149.992188 " clip-rule="nonzero"/></clipPath><clipPath id="f459aaf6bb"><path d="M 166 104 L 424 104 L 424 265 L 166 265 Z M 166 104 " clip-rule="nonzero"/></clipPath><clipPath id="10d83e8092"><path d="M 305.90625 -82.738281 L 532.738281 305.90625 L 144.09375 532.738281 L -82.738281 144.09375 Z M 305.90625 -82.738281 " clip-rule="nonzero"/></clipPath><clipPath id="4fa25f178a"><path d="M 305.90625 -82.738281 L 532.738281 305.90625 L 144.09375 532.738281 L -82.738281 144.09375 Z M 305.90625 -82.738281 " clip-rule="nonzero"/></clipPath><clipPath id="d4efefd4b0"><path d="M 305.90625 -82.738281 L 532.738281 305.90625 L 144.09375 532.738281 L -82.738281 144.09375 Z M 305.90625 -82.738281 " clip-rule="nonzero"/></clipPath><clipPath id="36b9706187"><path d="M 414.789062 103.8125 L 423.859375 119.355469 L 175.125 264.53125 L 166.050781 248.984375 Z M 414.789062 103.8125 " clip-rule="nonzero"/></clipPath><clipPath id="7313c6b2fe"><path d="M 414.917969 104.035156 L 423.730469 119.128906 L 174.992188 264.304688 L 166.183594 249.210938 Z M 414.917969 104.035156 " clip-rule="nonzero"/></clipPath><clipPath id="75ec7b956c"><path d="M 149 149 L 301 149 L 301 301 L 149 301 Z M 149 149 " clip-rule="nonzero"/></clipPath><clipPath id="4e28a807f1"><path d="M 305.90625 -82.738281 L 532.738281 305.90625 L 144.09375 532.738281 L -82.738281 144.09375 Z M 305.90625 -82.738281 " clip-rule="nonzero"/></clipPath><clipPath id="2967b2a0fd"><path d="M 305.90625 -82.738281 L 532.738281 305.90625 L 144.09375 532.738281 L -82.738281 144.09375 Z M 305.90625 -82.738281 " clip-rule="nonzero"/></clipPath><clipPath id="f73c3bec4f"><path d="M 305.90625 -82.738281 L 532.738281 305.90625 L 144.09375 532.738281 L -82.738281 144.09375 Z M 305.90625 -82.738281 " clip-rule="nonzero"/></clipPath><clipPath id="655f4f8752"><path d="M 252.328125 121.050781 L 328.445312 251.464844 L 198.03125 327.578125 L 121.914062 197.167969 Z M 252.328125 121.050781 " clip-rule="nonzero"/></clipPath><clipPath id="31b433888b"><path d="M 251.972656 122.410156 L 327.582031 251.957031 L 198.035156 327.570312 L 122.421875 198.019531 Z M 251.972656 122.410156 " clip-rule="nonzero"/></clipPath><clipPath id="40a98954c6"><path d="M 26 185 L 284 185 L 284 346 L 26 346 Z M 26 185 " clip-rule="nonzero"/></clipPath><clipPath id="9c50b4ce37"><path d="M 143.375 532.550781 L -82.550781 143.375 L 306.625 -82.550781 L 532.550781 306.625 Z M 143.375 532.550781 " clip-rule="nonzero"/></clipPath><clipPath id="4342bc323c"><path d="M 143.375 532.550781 L -82.550781 143.375 L 306.625 -82.550781 L 532.550781 306.625 Z M 143.375 532.550781 " clip-rule="nonzero"/></clipPath><clipPath id="e401f77ddd"><path d="M 143.375 532.550781 L -82.550781 143.375 L 306.625 -82.550781 L 532.550781 306.625 Z M 143.375 532.550781 " clip-rule="nonzero"/></clipPath><clipPath id="5df2534898"><path d="M 34.929688 345.746094 L 25.894531 330.179688 L 274.964844 185.585938 L 284.003906 201.152344 Z M 34.929688 345.746094 " clip-rule="nonzero"/></clipPath><clipPath id="541bb1f6a9"><path d="M 34.800781 345.519531 L 26.027344 330.40625 L 275.097656 185.8125 L 283.871094 200.925781 Z M 34.800781 345.519531 " clip-rule="nonzero"/></clipPath><clipPath id="f3dba766bb"><path d="M 149 149 L 301 149 L 301 301 L 149 301 Z M 149 149 " clip-rule="nonzero"/></clipPath><clipPath id="43c4ec0823"><path d="M 143.375 532.550781 L -82.550781 143.375 L 306.625 -82.550781 L 532.550781 306.625 Z M 143.375 532.550781 " clip-rule="nonzero"/></clipPath><clipPath id="205652ccfc"><path d="M 143.375 532.550781 L -82.550781 143.375 L 306.625 -82.550781 L 532.550781 306.625 Z M 143.375 532.550781 " clip-rule="nonzero"/></clipPath><clipPath id="24723f6e17"><path d="M 143.375 532.550781 L -82.550781 143.375 L 306.625 -82.550781 L 532.550781 306.625 Z M 143.375 532.550781 " clip-rule="nonzero"/></clipPath><clipPath id="e6686348fb"><path d="M 197.429688 328.882812 L 121.617188 198.292969 L 252.207031 122.484375 L 328.019531 253.074219 Z M 197.429688 328.882812 " clip-rule="nonzero"/></clipPath><clipPath id="af0c29a026"><path d="M 197.789062 327.527344 L 122.480469 197.804688 L 252.203125 122.492188 L 327.515625 252.21875 Z M 197.789062 327.527344 " clip-rule="nonzero"/></clipPath><clipPath id="020379325e"><path d="M 216.261719 162 L 233.738281 162 L 233.738281 450 L 216.261719 450 Z M 216.261719 162 " clip-rule="nonzero"/></clipPath><clipPath id="7e28904a29"><path d="M 150.007812 150.007812 L 300.007812 150.007812 L 300.007812 300.007812 L 150.007812 300.007812 Z M 150.007812 150.007812 " clip-rule="nonzero"/></clipPath></defs><g clip-path="url(#5762210c81)"><path fill="#6d0000" d="M 216.261719 0 L 233.664062 0 L 233.664062 287.929688 L 216.261719 287.929688 Z M 216.261719 0 " fill-opacity="1" fill-rule="nonzero"/></g><g clip-path="url(#b7553e20fe)"><path fill="#6d0000" d="M 224.992188 149.992188 C 183.554688 149.992188 149.992188 183.554688 149.992188 224.992188 C 149.992188 266.429688 183.554688 299.992188 224.992188 299.992188 C 266.429688 299.992188 299.992188 266.429688 299.992188 224.992188 C 299.992188 183.554688 266.429688 149.992188 224.992188 149.992188 Z M 224.992188 284.992188 C 191.84375 284.992188 164.992188 258.144531 164.992188 224.992188 C 164.992188 191.84375 191.84375 164.992188 224.992188 164.992188 C 258.144531 164.992188 284.992188 191.84375 284.992188 224.992188 C 284.992188 258.144531 258.144531 284.992188 224.992188 284.992188 Z M 224.992188 284.992188 " fill-opacity="1" fill-rule="nonzero"/></g><g clip-path="url(#f459aaf6bb)"><g clip-path="url(#10d83e8092)"><g clip-path="url(#4fa25f178a)"><g clip-path="url(#d4efefd4b0)"><g clip-path="url(#36b9706187)"><g clip-path="url(#7313c6b2fe)"><path fill="#6d0000" d="M 414.917969 104.035156 L 423.691406 119.066406 L 175.015625 264.203125 L 166.246094 249.175781 Z M 414.917969 104.035156 " fill-opacity="1" fill-rule="nonzero"/></g></g></g></g></g></g><g clip-path="url(#75ec7b956c)"><g clip-path="url(#4e28a807f1)"><g clip-path="url(#2967b2a0fd)"><g clip-path="url(#f73c3bec4f)"><g clip-path="url(#655f4f8752)"><g clip-path="url(#31b433888b)"><path fill="#6d0000" d="M 289.777344 187.183594 C 268.890625 151.394531 222.984375 139.328125 187.199219 160.214844 C 151.410156 181.101562 139.339844 227.007812 160.226562 262.792969 C 181.117188 298.582031 227.019531 310.652344 262.808594 289.765625 C 298.597656 268.875 310.664062 222.972656 289.777344 187.183594 Z M 173.183594 255.234375 C 156.472656 226.605469 166.125 189.878906 194.757812 173.167969 C 223.386719 156.460938 260.113281 166.117188 276.824219 194.746094 C 293.535156 223.378906 283.875 260.101562 255.246094 276.808594 C 226.613281 293.519531 189.894531 283.867188 173.183594 255.234375 Z M 173.183594 255.234375 " fill-opacity="1" fill-rule="nonzero"/></g></g></g></g></g></g><g clip-path="url(#40a98954c6)"><g clip-path="url(#9c50b4ce37)"><g clip-path="url(#4342bc323c)"><g clip-path="url(#e401f77ddd)"><g clip-path="url(#5df2534898)"><g clip-path="url(#541bb1f6a9)"><path fill="#6d0000" d="M 34.800781 345.519531 L 26.0625 330.472656 L 275.074219 185.914062 L 283.8125 200.960938 Z M 34.800781 345.519531 " fill-opacity="1" fill-rule="nonzero"/></g></g></g></g></g></g><g clip-path="url(#f3dba766bb)"><g clip-path="url(#43c4ec0823)"><g clip-path="url(#205652ccfc)"><g clip-path="url(#24723f6e17)"><g clip-path="url(#e6686348fb)"><g clip-path="url(#af0c29a026)"><path fill="#6d0000" d="M 160.132812 262.664062 C 180.9375 298.5 226.816406 310.675781 262.652344 289.875 C 298.488281 269.070312 310.664062 223.191406 289.859375 187.355469 C 269.054688 151.519531 223.179688 139.34375 187.34375 160.148438 C 151.507812 180.953125 139.332031 226.828125 160.132812 262.664062 Z M 276.886719 194.886719 C 293.53125 223.554688 283.792969 260.257812 255.121094 276.902344 C 226.453125 293.542969 189.75 283.800781 173.105469 255.132812 C 156.460938 226.464844 166.207031 189.761719 194.875 173.121094 C 223.542969 156.476562 260.242188 166.214844 276.886719 194.886719 Z M 276.886719 194.886719 " fill-opacity="1" fill-rule="nonzero"/></g></g></g></g></g></g><g clip-path="url(#020379325e)"><path fill="#6d0000" d="M 233.738281 450 L 216.335938 450 L 216.335938 162.070312 L 233.738281 162.070312 Z M 233.738281 450 " fill-opacity="1" fill-rule="nonzero"/></g><g clip-path="url(#7e28904a29)"><path fill="#6d0000" d="M 225.007812 300.007812 C 266.445312 300.007812 300.007812 266.445312 300.007812 225.007812 C 300.007812 183.570312 266.445312 150.007812 225.007812 150.007812 C 183.570312 150.007812 150.007812 183.570312 150.007812 225.007812 C 150.007812 266.445312 183.570312 300.007812 225.007812 300.007812 Z M 225.007812 165.007812 C 258.15625 165.007812 285.007812 191.855469 285.007812 225.007812 C 285.007812 258.15625 258.15625 285.007812 225.007812 285.007812 C 191.855469 285.007812 165.007812 258.15625 165.007812 225.007812 C 165.007812 191.855469 191.855469 165.007812 225.007812 165.007812 Z M 225.007812 165.007812 " fill-opacity="1" fill-rule="nonzero"/></g></svg>