<svg xmlns="http://www.w3.org/2000/svg" xmlns:xlink="http://www.w3.org/1999/xlink" width="600" zoomAndPan="magnify" viewBox="0 0 450 449.999984" height="600" preserveAspectRatio="xMidYMid meet" version="1.0"><defs><clipPath id="79d3908fa4"><path d="M 216.261719 0 L 233.738281 0 L 233.738281 288 L 216.261719 288 Z M 216.261719 0 " clip-rule="nonzero"/></clipPath><clipPath id="b0d6301b35"><path d="M 149.992188 149.992188 L 299.992188 149.992188 L 299.992188 299.992188 L 149.992188 299.992188 Z M 149.992188 149.992188 " clip-rule="nonzero"/></clipPath><clipPath id="d7d9bcc6f1"><path d="M 166 104 L 424 104 L 424 265 L 166 265 Z M 166 104 " clip-rule="nonzero"/></clipPath><clipPath id="3ac6859f5b"><path d="M 305.90625 -82.738281 L 532.738281 305.90625 L 144.09375 532.738281 L -82.738281 144.09375 Z M 305.90625 -82.738281 " clip-rule="nonzero"/></clipPath><clipPath id="1e6bd839b0"><path d="M 305.90625 -82.738281 L 532.738281 305.90625 L 144.09375 532.738281 L -82.738281 144.09375 Z M 305.90625 -82.738281 " clip-rule="nonzero"/></clipPath><clipPath id="7bc8d6b21b"><path d="M 305.90625 -82.738281 L 532.738281 305.90625 L 144.09375 532.738281 L -82.738281 144.09375 Z M 305.90625 -82.738281 " clip-rule="nonzero"/></clipPath><clipPath id="1a18d42587"><path d="M 414.789062 103.8125 L 423.859375 119.355469 L 175.125 264.53125 L 166.050781 248.984375 Z M 414.789062 103.8125 " clip-rule="nonzero"/></clipPath><clipPath id="9d9971b082"><path d="M 414.917969 104.035156 L 423.730469 119.128906 L 174.992188 264.304688 L 166.183594 249.210938 Z M 414.917969 104.035156 " clip-rule="nonzero"/></clipPath><clipPath id="21fe0c75a1"><path d="M 149 149 L 301 149 L 301 301 L 149 301 Z M 149 149 " clip-rule="nonzero"/></clipPath><clipPath id="4ff323cfa6"><path d="M 305.90625 -82.738281 L 532.738281 305.90625 L 144.09375 532.738281 L -82.738281 144.09375 Z M 305.90625 -82.738281 " clip-rule="nonzero"/></clipPath><clipPath id="8eda866063"><path d="M 305.90625 -82.738281 L 532.738281 305.90625 L 144.09375 532.738281 L -82.738281 144.09375 Z M 305.90625 -82.738281 " clip-rule="nonzero"/></clipPath><clipPath id="2535e785dd"><path d="M 305.90625 -82.738281 L 532.738281 305.90625 L 144.09375 532.738281 L -82.738281 144.09375 Z M 305.90625 -82.738281 " clip-rule="nonzero"/></clipPath><clipPath id="83dc0fd880"><path d="M 252.328125 121.050781 L 328.445312 251.464844 L 198.03125 327.578125 L 121.914062 197.167969 Z M 252.328125 121.050781 " clip-rule="nonzero"/></clipPath><clipPath id="95793516a7"><path d="M 251.972656 122.410156 L 327.582031 251.957031 L 198.035156 327.570312 L 122.421875 198.019531 Z M 251.972656 122.410156 " clip-rule="nonzero"/></clipPath><clipPath id="d7394bbc64"><path d="M 166 186 L 425 186 L 425 344 L 166 344 Z M 166 186 " clip-rule="nonzero"/></clipPath><clipPath id="e00539a644"><path d="M 531.757812 140.445312 L 309.554688 531.757812 L -81.757812 309.554688 L 140.445312 -81.757812 Z M 531.757812 140.445312 " clip-rule="nonzero"/></clipPath><clipPath id="fec9403e64"><path d="M 531.757812 140.445312 L 309.554688 531.757812 L -81.757812 309.554688 L 140.445312 -81.757812 Z M 531.757812 140.445312 " clip-rule="nonzero"/></clipPath><clipPath id="543fdb74d7"><path d="M 531.757812 140.445312 L 309.554688 531.757812 L -81.757812 309.554688 L 140.445312 -81.757812 Z M 531.757812 140.445312 " clip-rule="nonzero"/></clipPath><clipPath id="d239f9cdb0"><path d="M 425.101562 328.273438 L 416.210938 343.929688 L 165.773438 201.71875 L 174.660156 186.066406 Z M 425.101562 328.273438 " clip-rule="nonzero"/></clipPath><clipPath id="a390e54a1f"><path d="M 424.972656 328.503906 L 416.339844 343.699219 L 165.902344 201.488281 L 174.53125 186.292969 Z M 424.972656 328.503906 " clip-rule="nonzero"/></clipPath><clipPath id="44a0630070"><path d="M 149 149 L 301 149 L 301 301 L 149 301 Z M 149 149 " clip-rule="nonzero"/></clipPath><clipPath id="87c8724052"><path d="M 531.757812 140.445312 L 309.554688 531.757812 L -81.757812 309.554688 L 140.445312 -81.757812 Z M 531.757812 140.445312 " clip-rule="nonzero"/></clipPath><clipPath id="888aaced09"><path d="M 531.757812 140.445312 L 309.554688 531.757812 L -81.757812 309.554688 L 140.445312 -81.757812 Z M 531.757812 140.445312 " clip-rule="nonzero"/></clipPath><clipPath id="3e526828af"><path d="M 531.757812 140.445312 L 309.554688 531.757812 L -81.757812 309.554688 L 140.445312 -81.757812 Z M 531.757812 140.445312 " clip-rule="nonzero"/></clipPath><clipPath id="75d73d7d9e"><path d="M 328.617188 196.4375 L 254.054688 327.746094 L 122.746094 253.183594 L 197.308594 121.878906 Z M 328.617188 196.4375 " clip-rule="nonzero"/></clipPath><clipPath id="881f201889"><path d="M 327.261719 196.8125 L 253.195312 327.25 L 122.757812 253.183594 L 196.824219 122.746094 Z M 327.261719 196.8125 " clip-rule="nonzero"/></clipPath></defs><g clip-path="url(#79d3908fa4)"><path fill="#6d0000" d="M 216.261719 0 L 233.664062 0 L 233.664062 287.929688 L 216.261719 287.929688 Z M 216.261719 0 " fill-opacity="1" fill-rule="nonzero"/></g><g clip-path="url(#b0d6301b35)"><path fill="#6d0000" d="M 224.992188 149.992188 C 183.554688 149.992188 149.992188 183.554688 149.992188 224.992188 C 149.992188 266.429688 183.554688 299.992188 224.992188 299.992188 C 266.429688 299.992188 299.992188 266.429688 299.992188 224.992188 C 299.992188 183.554688 266.429688 149.992188 224.992188 149.992188 Z M 224.992188 284.992188 C 191.84375 284.992188 164.992188 258.144531 164.992188 224.992188 C 164.992188 191.84375 191.84375 164.992188 224.992188 164.992188 C 258.144531 164.992188 284.992188 191.84375 284.992188 224.992188 C 284.992188 258.144531 258.144531 284.992188 224.992188 284.992188 Z M 224.992188 284.992188 " fill-opacity="1" fill-rule="nonzero"/></g><g clip-path="url(#d7d9bcc6f1)"><g clip-path="url(#3ac6859f5b)"><g clip-path="url(#1e6bd839b0)"><g clip-path="url(#7bc8d6b21b)"><g clip-path="url(#1a18d42587)"><g clip-path="url(#9d9971b082)"><path fill="#6d0000" d="M 414.917969 104.035156 L 423.691406 119.066406 L 175.015625 264.203125 L 166.246094 249.175781 Z M 414.917969 104.035156 " fill-opacity="1" fill-rule="nonzero"/></g></g></g></g></g></g><g clip-path="url(#21fe0c75a1)"><g clip-path="url(#4ff323cfa6)"><g clip-path="url(#8eda866063)"><g clip-path="url(#2535e785dd)"><g clip-path="url(#83dc0fd880)"><g clip-path="url(#95793516a7)"><path fill="#6d0000" d="M 289.777344 187.183594 C 268.890625 151.394531 222.984375 139.328125 187.199219 160.214844 C 151.410156 181.101562 139.339844 227.007812 160.226562 262.792969 C 181.117188 298.582031 227.019531 310.652344 262.808594 289.765625 C 298.597656 268.875 310.664062 222.972656 289.777344 187.183594 Z M 173.183594 255.234375 C 156.472656 226.605469 166.125 189.878906 194.757812 173.167969 C 223.386719 156.460938 260.113281 166.117188 276.824219 194.746094 C 293.535156 223.378906 283.875 260.101562 255.246094 276.808594 C 226.613281 293.519531 189.894531 283.867188 173.183594 255.234375 Z M 173.183594 255.234375 " fill-opacity="1" fill-rule="nonzero"/></g></g></g></g></g></g><g clip-path="url(#d7394bbc64)"><g clip-path="url(#e00539a644)"><g clip-path="url(#fec9403e64)"><g clip-path="url(#543fdb74d7)"><g clip-path="url(#d239f9cdb0)"><g clip-path="url(#a390e54a1f)"><path fill="#6d0000" d="M 424.972656 328.503906 L 416.378906 343.636719 L 166 201.460938 L 174.59375 186.328125 Z M 424.972656 328.503906 " fill-opacity="1" fill-rule="nonzero"/></g></g></g></g></g></g><g clip-path="url(#44a0630070)"><g clip-path="url(#87c8724052)"><g clip-path="url(#888aaced09)"><g clip-path="url(#3e526828af)"><g clip-path="url(#75d73d7d9e)"><g clip-path="url(#881f201889)"><path fill="#6d0000" d="M 290.230469 262.03125 C 310.691406 225.996094 298.078125 180.238281 262.042969 159.777344 C 226.011719 139.316406 180.253906 151.929688 159.792969 187.964844 C 139.332031 223.996094 151.945312 269.753906 187.976562 290.214844 C 224.011719 310.675781 269.769531 298.0625 290.230469 262.03125 Z M 172.835938 195.371094 C 189.203125 166.542969 225.808594 156.453125 254.636719 172.820312 C 283.464844 189.191406 293.554688 225.796875 277.1875 254.625 C 260.816406 283.453125 224.207031 293.539062 195.382812 277.171875 C 166.554688 260.800781 156.464844 224.199219 172.835938 195.371094 Z M 172.835938 195.371094 " fill-opacity="1" fill-rule="nonzero"/></g></g></g></g></g></g></svg>