<svg xmlns="http://www.w3.org/2000/svg" xmlns:xlink="http://www.w3.org/1999/xlink" width="600" zoomAndPan="magnify" viewBox="0 0 450 449.999984" height="600" preserveAspectRatio="xMidYMid meet" version="1.0"><defs><clipPath id="18a538fdc3"><path d="M 216.261719 0 L 233.738281 0 L 233.738281 288 L 216.261719 288 Z M 216.261719 0 " clip-rule="nonzero"/></clipPath><clipPath id="7c3c4fb5b6"><path d="M 149.992188 149.992188 L 299.992188 149.992188 L 299.992188 299.992188 L 149.992188 299.992188 Z M 149.992188 149.992188 " clip-rule="nonzero"/></clipPath><clipPath id="93e0219352"><path d="M 216.261719 162 L 233.738281 162 L 233.738281 450 L 216.261719 450 Z M 216.261719 162 " clip-rule="nonzero"/></clipPath><clipPath id="dee055d9bb"><path d="M 150.007812 150.007812 L 300.007812 150.007812 L 300.007812 300.007812 L 150.007812 300.007812 Z M 150.007812 150.007812 " clip-rule="nonzero"/></clipPath><clipPath id="3747d17b5b"><path d="M 24 186 L 285 186 L 285 344 L 24 344 Z M 24 186 " clip-rule="nonzero"/></clipPath><clipPath id="816fd01da7"><path d="M 140.148438 531.675781 L -81.675781 140.148438 L 309.851562 -81.675781 L 531.675781 309.851562 Z M 140.148438 531.675781 " clip-rule="nonzero"/></clipPath><clipPath id="e6852b01aa"><path d="M 140.148438 531.675781 L -81.675781 140.148438 L 309.851562 -81.675781 L 531.675781 309.851562 Z M 140.148438 531.675781 " clip-rule="nonzero"/></clipPath><clipPath id="350cca7397"><path d="M 140.148438 531.675781 L -81.675781 140.148438 L 309.851562 -81.675781 L 531.675781 309.851562 Z M 140.148438 531.675781 " clip-rule="nonzero"/></clipPath><clipPath id="8a03d59c4b"><path d="M 33.671875 343.742188 L 24.800781 328.082031 L 275.378906 186.113281 L 284.25 201.773438 Z M 33.671875 343.742188 " clip-rule="nonzero"/></clipPath><clipPath id="b86c4e820f"><path d="M 33.542969 343.515625 L 24.929688 328.308594 L 275.507812 186.34375 L 284.121094 201.546875 Z M 33.542969 343.515625 " clip-rule="nonzero"/></clipPath><clipPath id="4e0f23910f"><path d="M 149 149 L 301 149 L 301 301 L 149 301 Z M 149 149 " clip-rule="nonzero"/></clipPath><clipPath id="04b25767fd"><path d="M 140.148438 531.675781 L -81.675781 140.148438 L 309.851562 -81.675781 L 531.675781 309.851562 Z M 140.148438 531.675781 " clip-rule="nonzero"/></clipPath><clipPath id="6e67c44257"><path d="M 140.148438 531.675781 L -81.675781 140.148438 L 309.851562 -81.675781 L 531.675781 309.851562 Z M 140.148438 531.675781 " clip-rule="nonzero"/></clipPath><clipPath id="a53cba7679"><path d="M 140.148438 531.675781 L -81.675781 140.148438 L 309.851562 -81.675781 L 531.675781 309.851562 Z M 140.148438 531.675781 " clip-rule="nonzero"/></clipPath><clipPath id="fab8c99291"><path d="M 196.339844 328.589844 L 121.90625 197.207031 L 253.285156 122.773438 L 327.71875 254.152344 Z M 196.339844 328.589844 " clip-rule="nonzero"/></clipPath><clipPath id="a164eace9c"><path d="M 196.710938 327.234375 L 122.773438 196.726562 L 253.28125 122.785156 L 327.222656 253.292969 Z M 196.710938 327.234375 " clip-rule="nonzero"/></clipPath></defs><g clip-path="url(#18a538fdc3)"><path fill="#6d0000" d="M 216.261719 0 L 233.664062 0 L 233.664062 287.929688 L 216.261719 287.929688 Z M 216.261719 0 " fill-opacity="1" fill-rule="nonzero"/></g><g clip-path="url(#7c3c4fb5b6)"><path fill="#6d0000" d="M 224.992188 149.992188 C 183.554688 149.992188 149.992188 183.554688 149.992188 224.992188 C 149.992188 266.429688 183.554688 299.992188 224.992188 299.992188 C 266.429688 299.992188 299.992188 266.429688 299.992188 224.992188 C 299.992188 183.554688 266.429688 149.992188 224.992188 149.992188 Z M 224.992188 284.992188 C 191.84375 284.992188 164.992188 258.144531 164.992188 224.992188 C 164.992188 191.84375 191.84375 164.992188 224.992188 164.992188 C 258.144531 164.992188 284.992188 191.84375 284.992188 224.992188 C 284.992188 258.144531 258.144531 284.992188 224.992188 284.992188 Z M 224.992188 284.992188 " fill-opacity="1" fill-rule="nonzero"/></g><g clip-path="url(#93e0219352)"><path fill="#6d0000" d="M 233.738281 450 L 216.335938 450 L 216.335938 162.070312 L 233.738281 162.070312 Z M 233.738281 450 " fill-opacity="1" fill-rule="nonzero"/></g><g clip-path="url(#dee055d9bb)"><path fill="#6d0000" d="M 225.007812 300.007812 C 266.445312 300.007812 300.007812 266.445312 300.007812 225.007812 C 300.007812 183.570312 266.445312 150.007812 225.007812 150.007812 C 183.570312 150.007812 150.007812 183.570312 150.007812 225.007812 C 150.007812 266.445312 183.570312 300.007812 225.007812 300.007812 Z M 225.007812 165.007812 C 258.15625 165.007812 285.007812 191.855469 285.007812 225.007812 C 285.007812 258.15625 258.15625 285.007812 225.007812 285.007812 C 191.855469 285.007812 165.007812 258.15625 165.007812 225.007812 C 165.007812 191.855469 191.855469 165.007812 225.007812 165.007812 Z M 225.007812 165.007812 " fill-opacity="1" fill-rule="nonzero"/></g><g clip-path="url(#3747d17b5b)"><g clip-path="url(#816fd01da7)"><g clip-path="url(#e6852b01aa)"><g clip-path="url(#350cca7397)"><g clip-path="url(#8a03d59c4b)"><g clip-path="url(#b86c4e820f)"><path fill="#6d0000" d="M 33.542969 343.515625 L 24.964844 328.375 L 275.480469 186.441406 L 284.058594 201.582031 Z M 33.542969 343.515625 " fill-opacity="1" fill-rule="nonzero"/></g></g></g></g></g></g><g clip-path="url(#4e0f23910f)"><g clip-path="url(#04b25767fd)"><g clip-path="url(#6e67c44257)"><g clip-path="url(#a53cba7679)"><g clip-path="url(#fab8c99291)"><g clip-path="url(#a164eace9c)"><path fill="#6d0000" d="M 159.742188 261.980469 C 180.167969 298.035156 225.914062 310.691406 261.96875 290.265625 C 298.019531 269.839844 310.679688 224.09375 290.25 188.039062 C 269.824219 151.988281 224.078125 139.328125 188.027344 159.757812 C 151.972656 180.183594 139.316406 225.929688 159.742188 261.980469 Z M 277.199219 195.433594 C 293.542969 224.277344 283.417969 260.871094 254.574219 277.214844 C 225.730469 293.554688 189.132812 283.429688 172.792969 254.585938 C 156.449219 225.742188 166.578125 189.148438 195.421875 172.808594 C 224.265625 156.464844 260.859375 166.589844 277.199219 195.433594 Z M 277.199219 195.433594 " fill-opacity="1" fill-rule="nonzero"/></g></g></g></g></g></g></svg>