<svg xmlns="http://www.w3.org/2000/svg" xmlns:xlink="http://www.w3.org/1999/xlink" width="600" zoomAndPan="magnify" viewBox="0 0 450 449.999984" height="600" preserveAspectRatio="xMidYMid meet" version="1.0"><defs><clipPath id="6758133193"><path d="M 216.261719 0 L 233.738281 0 L 233.738281 288 L 216.261719 288 Z M 216.261719 0 " clip-rule="nonzero"/></clipPath><clipPath id="a50b42ced2"><path d="M 149.992188 149.992188 L 299.992188 149.992188 L 299.992188 299.992188 L 149.992188 299.992188 Z M 149.992188 149.992188 " clip-rule="nonzero"/></clipPath><clipPath id="ad1378abc3"><path d="M 165 186 L 426 186 L 426 344 L 165 344 Z M 165 186 " clip-rule="nonzero"/></clipPath><clipPath id="ef91dfd8e0"><path d="M 531.65625 140.078125 L 309.921875 531.65625 L -81.65625 309.921875 L 140.078125 -81.65625 Z M 531.65625 140.078125 " clip-rule="nonzero"/></clipPath><clipPath id="b1234aa962"><path d="M 531.65625 140.078125 L 309.921875 531.65625 L -81.65625 309.921875 L 140.078125 -81.65625 Z M 531.65625 140.078125 " clip-rule="nonzero"/></clipPath><clipPath id="5da2ab2da2"><path d="M 531.65625 140.078125 L 309.921875 531.65625 L -81.65625 309.921875 L 140.078125 -81.65625 Z M 531.65625 140.078125 " clip-rule="nonzero"/></clipPath><clipPath id="e1a5023a2f"><path d="M 425.222656 328.035156 L 416.355469 343.699219 L 165.746094 201.789062 L 174.613281 186.125 Z M 425.222656 328.035156 " clip-rule="nonzero"/></clipPath><clipPath id="883a68f9db"><path d="M 425.09375 328.261719 L 416.484375 343.472656 L 165.875 201.5625 L 174.484375 186.351562 Z M 425.09375 328.261719 " clip-rule="nonzero"/></clipPath><clipPath id="91c3744821"><path d="M 149 149 L 301 149 L 301 301 L 149 301 Z M 149 149 " clip-rule="nonzero"/></clipPath><clipPath id="ba1a8be173"><path d="M 531.65625 140.078125 L 309.921875 531.65625 L -81.65625 309.921875 L 140.078125 -81.65625 Z M 531.65625 140.078125 " clip-rule="nonzero"/></clipPath><clipPath id="6e038a68bf"><path d="M 531.65625 140.078125 L 309.921875 531.65625 L -81.65625 309.921875 L 140.078125 -81.65625 Z M 531.65625 140.078125 " clip-rule="nonzero"/></clipPath><clipPath id="286eaff961"><path d="M 531.65625 140.078125 L 309.921875 531.65625 L -81.65625 309.921875 L 140.078125 -81.65625 Z M 531.65625 140.078125 " clip-rule="nonzero"/></clipPath><clipPath id="94ec79ea49"><path d="M 328.582031 196.316406 L 254.175781 327.710938 L 122.78125 253.308594 L 197.183594 121.910156 Z M 328.582031 196.316406 " clip-rule="nonzero"/></clipPath><clipPath id="94a90d60ed"><path d="M 327.230469 196.691406 L 253.316406 327.214844 L 122.792969 253.304688 L 196.703125 122.777344 Z M 327.230469 196.691406 " clip-rule="nonzero"/></clipPath><clipPath id="57a9e9d133"><path d="M 216.261719 162 L 233.738281 162 L 233.738281 450 L 216.261719 450 Z M 216.261719 162 " clip-rule="nonzero"/></clipPath><clipPath id="81462a11cb"><path d="M 150.007812 150.007812 L 300.007812 150.007812 L 300.007812 300.007812 L 150.007812 300.007812 Z M 150.007812 150.007812 " clip-rule="nonzero"/></clipPath></defs><g clip-path="url(#6758133193)"><path fill="#6d0000" d="M 216.261719 0 L 233.664062 0 L 233.664062 287.929688 L 216.261719 287.929688 Z M 216.261719 0 " fill-opacity="1" fill-rule="nonzero"/></g><g clip-path="url(#a50b42ced2)"><path fill="#6d0000" d="M 224.992188 149.992188 C 183.554688 149.992188 149.992188 183.554688 149.992188 224.992188 C 149.992188 266.429688 183.554688 299.992188 224.992188 299.992188 C 266.429688 299.992188 299.992188 266.429688 299.992188 224.992188 C 299.992188 183.554688 266.429688 149.992188 224.992188 149.992188 Z M 224.992188 284.992188 C 191.84375 284.992188 164.992188 258.144531 164.992188 224.992188 C 164.992188 191.84375 191.84375 164.992188 224.992188 164.992188 C 258.144531 164.992188 284.992188 191.84375 284.992188 224.992188 C 284.992188 258.144531 258.144531 284.992188 224.992188 284.992188 Z M 224.992188 284.992188 " fill-opacity="1" fill-rule="nonzero"/></g><g clip-path="url(#ad1378abc3)"><g clip-path="url(#ef91dfd8e0)"><g clip-path="url(#b1234aa962)"><g clip-path="url(#5da2ab2da2)"><g clip-path="url(#e1a5023a2f)"><g clip-path="url(#883a68f9db)"><path fill="#6d0000" d="M 425.09375 328.261719 L 416.519531 343.40625 L 165.972656 201.53125 L 174.546875 186.386719 Z M 425.09375 328.261719 " fill-opacity="1" fill-rule="nonzero"/></g></g></g></g></g></g><g clip-path="url(#91c3744821)"><g clip-path="url(#ba1a8be173)"><g clip-path="url(#6e038a68bf)"><g clip-path="url(#286eaff961)"><g clip-path="url(#94ec79ea49)"><g clip-path="url(#94a90d60ed)"><path fill="#6d0000" d="M 290.273438 261.953125 C 310.691406 225.894531 298.023438 180.152344 261.964844 159.734375 C 225.910156 139.316406 180.164062 151.984375 159.746094 188.042969 C 139.328125 224.097656 151.996094 269.84375 188.054688 290.261719 C 224.113281 310.679688 269.855469 298.011719 290.273438 261.953125 Z M 172.800781 195.433594 C 189.132812 166.585938 225.726562 156.449219 254.574219 172.785156 C 283.421875 189.121094 293.554688 225.714844 277.222656 254.5625 C 260.886719 283.410156 224.292969 293.542969 195.445312 277.207031 C 166.597656 260.871094 156.464844 224.28125 172.800781 195.433594 Z M 172.800781 195.433594 " fill-opacity="1" fill-rule="nonzero"/></g></g></g></g></g></g><g clip-path="url(#57a9e9d133)"><path fill="#6d0000" d="M 233.738281 450 L 216.335938 450 L 216.335938 162.070312 L 233.738281 162.070312 Z M 233.738281 450 " fill-opacity="1" fill-rule="nonzero"/></g><g clip-path="url(#81462a11cb)"><path fill="#6d0000" d="M 225.007812 300.007812 C 266.445312 300.007812 300.007812 266.445312 300.007812 225.007812 C 300.007812 183.570312 266.445312 150.007812 225.007812 150.007812 C 183.570312 150.007812 150.007812 183.570312 150.007812 225.007812 C 150.007812 266.445312 183.570312 300.007812 225.007812 300.007812 Z M 225.007812 165.007812 C 258.15625 165.007812 285.007812 191.855469 285.007812 225.007812 C 285.007812 258.15625 258.15625 285.007812 225.007812 285.007812 C 191.855469 285.007812 165.007812 258.15625 165.007812 225.007812 C 165.007812 191.855469 191.855469 165.007812 225.007812 165.007812 Z M 225.007812 165.007812 " fill-opacity="1" fill-rule="nonzero"/></g></svg>